<?xml version="1.0" encoding="UTF-8" standalone="no"?>
<!-- Generator: Adobe Illustrator 26.3.1, SVG Export Plug-In . SVG Version: 6.00 Build 0)  -->

<svg
   version="1.1"
   id="Calque_1"
   x="0px"
   y="0px"
   viewBox="0 0 361.89002 135.66"
   xml:space="preserve"
   sodipodi:docname="logo-title.svg"
   width="361.89001"
   height="135.66"
   inkscape:version="1.2.2 (b0a8486541, 2022-12-01)"
   xmlns:inkscape="http://www.inkscape.org/namespaces/inkscape"
   xmlns:sodipodi="http://sodipodi.sourceforge.net/DTD/sodipodi-0.dtd"
   xmlns="http://www.w3.org/2000/svg"
   xmlns:svg="http://www.w3.org/2000/svg"><defs
   id="defs43" /><sodipodi:namedview
   id="namedview41"
   pagecolor="#ffffff"
   bordercolor="#000000"
   borderopacity="0.25"
   inkscape:showpageshadow="2"
   inkscape:pageopacity="0.0"
   inkscape:pagecheckerboard="0"
   inkscape:deskcolor="#d1d1d1"
   showgrid="false"
   inkscape:zoom="3.7363231"
   inkscape:cx="181.328"
   inkscape:cy="67.71363"
   inkscape:window-width="1920"
   inkscape:window-height="1011"
   inkscape:window-x="0"
   inkscape:window-y="0"
   inkscape:window-maximized="1"
   inkscape:current-layer="Calque_1" />
<style
   type="text/css"
   id="style2">
	.st0{fill:#FF680A;}
	.st1{fill:#7A7F82;}
	.st2{fill:#FFFFFF;}
</style>
<path
   class="st0"
   d="m 78.05,96.29 c 0,7.32 -4.82,13.52 -12.87,13.52 -7.78,0 -13.06,-6.39 -13.06,-13.71 v -0.19 c 0,-7.32 4.82,-13.52 12.87,-13.52 7.78,0 13.06,6.39 13.06,13.7 z M 91.94,96.11 V 95.92 C 91.94,81.66 80.55,70.27 65.17,70.27 49.7,70.27 38.22,81.85 38.22,96.11 v 0.18 c 0,14.26 11.39,25.65 26.76,25.65 15.48,0.01 26.96,-11.57 26.96,-25.83 z"
   id="path4" />
<path
   class="st2"
   d="m 230.97,25.84 c 0,8.34 -5.56,13.71 -12.13,13.71 -6.58,0 -12.04,-5.46 -12.04,-13.71 v -0.19 c 0,-8.24 5.46,-13.71 12.04,-13.71 6.57,0 12.13,5.46 12.13,13.71 z m 12.67,0 V 25.65 C 243.64,9.07 232.62,0 221.04,0 213.72,0 209,3.43 205.57,8.06 V 0.93 h -13.23 v 64.46 h 13.23 v -21.3 c 3.33,3.98 7.96,7.41 15.47,7.41 11.77,-0.01 22.6,-9.08 22.6,-25.66 z"
   id="path6" />
<path
   class="st2"
   d="M 183.74,50.57 V 18.25 c 0,-11.95 -6.3,-18.24 -16.76,-18.24 -6.76,0 -11.95,2.78 -16.3,7.87 -2.59,-5 -7.5,-7.87 -13.99,-7.87 -7.13,0 -11.39,3.8 -14.63,7.96 V 0.93 h -14.08 v 49.64 h 14.08 V 22.88 c 0,-6.67 3.24,-10.1 8.52,-10.1 5.28,0 8.24,3.43 8.24,10.1 V 50.57 H 152.9 V 22.88 c 0,-6.67 3.24,-10.1 8.52,-10.1 5.28,0 8.24,3.43 8.24,10.1 v 27.69 z"
   id="path8" />
<path
   class="st2"
   d="m 75.07,41.51 c -3.99,0 -6.43,-2.09 -6.43,-4.74 0,-3.06 1.47,-4.64 5.87,-5.28 9.16,-1.35 11.41,-2.71 11.41,-2.71 1.35,11.18 -6.59,12.73 -10.85,12.73 z m 24.5,9.04 c 0,0 -0.08,-23.87 -0.08,-32.23 C 99.49,8.43 91.81,0 77.34,0 62.63,0 55.92,8.29 55.92,19.16 h 13.14 c 0.17,-1.15 -0.43,-7.03 7.86,-7.03 5.98,0 8.86,1.76 8.86,4.78 0,8.3 -30.43,-1.26 -30.43,20.78 0,10.69 7.81,13.99 15.12,13.99 11.25,0 15.31,-6.35 15.31,-6.35 l -0.12,5.2 z"
   id="path10" />
<path
   class="st2"
   d="m 36.84,32.68 c -0.64,2.75 -3.78,6.87 -10.36,6.87 -7.69,0 -12.59,-6.11 -12.59,-13.71 v -0.19 c 0,-7.32 5,-13.52 12.04,-13.52 6.9,0 9.99,3.77 10.92,7.02 H 49.99 C 49.78,12.95 44.09,0 26.02,0 10.83,0 0,11.67 0,25.84 v 0.18 c 0,14.17 10.93,25.65 25.84,25.65 17.8,0 23.94,-13.16 24.15,-19 H 36.84 Z"
   id="path12" />
<path
   class="st2"
   d="m 328.25,96.11 c 0,8.34 -5.56,13.71 -12.13,13.71 -6.58,0 -12.04,-5.46 -12.04,-13.71 v -0.19 c 0,-8.24 5.46,-13.71 12.04,-13.71 6.57,0 12.13,5.46 12.13,13.71 z m 12.67,0 v -0.19 c 0,-16.58 -11.02,-25.65 -22.6,-25.65 -7.32,0 -12.04,3.43 -15.47,8.06 V 71.2 h -13.23 v 64.46 h 13.23 v -21.3 c 3.33,3.98 7.96,7.41 15.47,7.41 11.76,-0.01 22.6,-9.08 22.6,-25.66 z"
   id="path14" />
<path
   class="st2"
   d="M 281.02,120.83 V 88.51 c 0,-11.95 -6.3,-18.24 -16.76,-18.24 -6.76,0 -11.95,2.78 -16.3,7.87 -2.59,-5 -7.5,-7.87 -13.99,-7.87 -7.13,0 -11.39,3.8 -14.63,7.96 v -7.04 h -14.08 v 49.64 h 14.08 V 93.14 c 0,-6.67 3.24,-10.1 8.52,-10.1 5.28,0 8.24,3.43 8.24,10.1 v 27.69 h 14.08 V 93.14 c 0,-6.67 3.24,-10.1 8.52,-10.1 5.28,0 8.24,3.43 8.24,10.1 v 27.69 z"
   id="path16" />
<path
   class="st2"
   d="m 172.35,111.77 c -3.99,0 -6.43,-2.09 -6.43,-4.74 0,-3.06 1.47,-4.64 5.87,-5.28 9.16,-1.35 11.41,-2.71 11.41,-2.71 1.35,11.19 -6.59,12.73 -10.85,12.73 z m 24.49,9.04 c 0,0 -0.08,-23.87 -0.08,-32.23 0,-9.89 -7.68,-18.32 -22.15,-18.32 -14.71,0 -21.42,8.29 -21.42,19.16 h 13.14 c 0.17,-1.15 -0.43,-7.03 7.86,-7.03 5.98,0 8.86,1.76 8.86,4.78 0,8.3 -30.43,-1.26 -30.43,20.78 0,10.69 7.8,13.99 15.12,13.99 11.25,0 15.31,-6.35 15.31,-6.35 l -0.12,5.2 z"
   id="path18" />
<path
   class="st2"
   d="m 134.12,102.94 c -0.64,2.75 -3.78,6.87 -10.36,6.87 -7.69,0 -12.59,-6.11 -12.59,-13.71 v -0.19 c 0,-7.32 5,-13.52 12.04,-13.52 6.9,0 9.99,3.77 10.92,7.02 h 13.14 c -0.21,-6.2 -5.9,-19.15 -23.97,-19.15 -15.19,0 -26.02,11.67 -26.02,25.84 v 0.18 c 0,14.17 10.93,25.65 25.84,25.65 17.8,0 23.94,-13.16 24.15,-19 h -13.15 z"
   id="path20" />
<g
   id="g24"
   transform="translate(-22.87,-20.59)">
	<path
   class="st0"
   d="m 57.15,129.68 c 0,0 -1.86,0.2 -5,0.2 -3.14,0 -4.93,-1.97 -4.93,-5.24 V 103.83 H 57.48 V 91.79 H 47.22 V 79.1 H 33.14 v 12.69 h -7.89 v 12.04 h 7.89 v 22.65 c 0,11.49 5.77,15.5 14.45,15.5 6.06,0 9.56,-0.59 9.56,-0.59 z"
   id="path22" />
</g>
<g
   id="g38"
   transform="translate(-22.87,-20.59)">
	<rect
   x="373.32001"
   y="71.199997"
   class="st0"
   width="2.29"
   height="2.29"
   id="rect26" />
	<rect
   x="371.04001"
   y="73.489998"
   class="st0"
   width="2.29"
   height="2.29"
   id="rect28" />
	<rect
   x="368.75"
   y="75.779999"
   class="st0"
   width="2.29"
   height="2.29"
   id="rect30" />
	<rect
   x="366.45999"
   y="78.059998"
   class="st0"
   width="2.29"
   height="2.29"
   id="rect32" />
	<rect
   x="364.17999"
   y="80.349998"
   class="st0"
   width="2.29"
   height="4.5700002"
   id="rect34" />
	<polygon
   class="st0"
   points="380.19,80.35 380.19,75.78 377.9,75.78 377.9,73.49 375.61,73.49 375.61,78.06 373.32,78.06 373.32,80.35 375.61,80.35 375.61,82.64 373.32,82.64 373.32,80.35 371.04,80.35 371.04,82.64 368.75,82.64 368.75,84.93 366.46,84.93 366.46,87.21 364.18,87.21 364.18,84.93 361.89,84.93 361.89,91.79 384.76,91.79 384.76,82.64 382.47,82.64 382.47,80.35 "
   id="polygon36" />
</g>
</svg>
