<?xml version="1.0" encoding="UTF-8" standalone="no"?>
<!-- Generator: Adobe Illustrator 26.5.0, SVG Export Plug-In . SVG Version: 6.00 Build 0)  -->

<svg
   version="1.1"
   id="Calque_1"
   x="0px"
   y="0px"
   viewBox="0 0 585.3 77.199995"
   xml:space="preserve"
   sodipodi:docname="logo-header-left.svg"
   width="585.29999"
   height="77.199997"
   inkscape:version="1.2.2 (b0a8486541, 2022-12-01)"
   xmlns:inkscape="http://www.inkscape.org/namespaces/inkscape"
   xmlns:sodipodi="http://sodipodi.sourceforge.net/DTD/sodipodi-0.dtd"
   xmlns="http://www.w3.org/2000/svg"
   xmlns:svg="http://www.w3.org/2000/svg"><defs
   id="defs29" /><sodipodi:namedview
   id="namedview27"
   pagecolor="#ffffff"
   bordercolor="#000000"
   borderopacity="0.25"
   inkscape:showpageshadow="2"
   inkscape:pageopacity="0.0"
   inkscape:pagecheckerboard="0"
   inkscape:deskcolor="#d1d1d1"
   showgrid="false"
   inkscape:zoom="2.4143945"
   inkscape:cx="293.03414"
   inkscape:cy="38.518975"
   inkscape:window-width="1920"
   inkscape:window-height="1011"
   inkscape:window-x="0"
   inkscape:window-y="0"
   inkscape:window-maximized="1"
   inkscape:current-layer="Calque_1" />
<style
   type="text/css"
   id="style2">
	.st0{fill:#FF680A;}
	.st1{fill:#7A7F82;}
	.st2{fill:#FFFFFF;}
</style>
<path
   class="st0"
   d="m 322.4,37.8 c 0,7.3 -4.8,13.5 -12.9,13.5 -7.8,0 -13.1,-6.4 -13.1,-13.7 v -0.2 c 0,-7.3 4.8,-13.5 12.9,-13.5 7.8,0 13.1,6.4 13.1,13.7 z m 13.9,-0.2 v -0.2 c 0,-14.3 -11.4,-25.7 -26.8,-25.7 -15.5,0 -26.9,11.6 -26.9,25.8 v 0.2 c 0,14.3 11.4,25.7 26.8,25.7 15.4,0 26.9,-11.5 26.9,-25.8 z"
   id="path4" />
<path
   class="st1"
   d="m 231.1,37.6 c 0,8.3 -5.6,13.7 -12.1,13.7 -6.6,0 -12,-5.5 -12,-13.7 v -0.2 c 0,-8.2 5.5,-13.7 12,-13.7 6.6,0 12.1,5.5 12.1,13.7 z m 12.7,0 v -0.2 c 0,-16.6 -11,-25.7 -22.6,-25.7 -7.3,0 -12,3.4 -15.5,8.1 v -7.1 h -13.2 v 64.5 h 13.2 V 55.8 c 3.3,4 8,7.4 15.5,7.4 11.8,0 22.6,-9 22.6,-25.6 z"
   id="path6" />
<path
   class="st1"
   d="M 183.9,62.3 V 30 c 0,-11.9 -6.3,-18.2 -16.8,-18.2 -6.8,0 -11.9,2.8 -16.3,7.9 -2.6,-5 -7.5,-7.9 -14,-7.9 -7.1,0 -11.4,3.8 -14.6,8 v -7 h -14.1 v 49.6 h 14.1 V 34.6 c 0,-6.7 3.2,-10.1 8.5,-10.1 5.3,0 8.2,3.4 8.2,10.1 V 62.3 H 153 V 34.6 c 0,-6.7 3.2,-10.1 8.5,-10.1 5.3,0 8.2,3.4 8.2,10.1 v 27.7 z"
   id="path8" />
<path
   class="st1"
   d="m 75.2,53.3 c -4,0 -6.4,-2.1 -6.4,-4.7 0,-3.1 1.5,-4.6 5.9,-5.3 9.2,-1.3 11.4,-2.7 11.4,-2.7 1.3,11.1 -6.6,12.7 -10.9,12.7 z m 24.5,9 c 0,0 -0.1,-23.9 -0.1,-32.2 0,-9.9 -7.7,-18.3 -22.1,-18.3 -14.7,0 -21.4,8.3 -21.4,19.2 h 13.1 c 0.2,-1.2 -0.4,-7 7.9,-7 6,0 8.9,1.8 8.9,4.8 0,8.3 -30.4,-1.3 -30.4,20.8 0,10.7 7.8,14 15.1,14 C 82,63.6 86,57.3 86,57.3 l -0.1,5.2 z"
   id="path10" />
<path
   class="st1"
   d="M 37,44.4 C 36.4,47.1 33.2,51.3 26.6,51.3 18.9,51.3 14,45.2 14,37.6 v -0.2 c 0,-7.3 5,-13.5 12,-13.5 6.9,0 10,3.8 10.9,7 H 50 C 49.8,24.7 44.1,11.7 26,11.7 10.8,11.7 0,23.4 0,37.5 v 0.2 c 0.2,14.2 11.1,25.7 26,25.7 17.8,0 23.9,-13.2 24.2,-19 z"
   id="path12" />
<path
   class="st1"
   d="m 572.6,37.6 c 0,8.3 -5.6,13.7 -12.1,13.7 -6.6,0 -12,-5.5 -12,-13.7 v -0.2 c 0,-8.2 5.5,-13.7 12,-13.7 6.6,0 12.1,5.5 12.1,13.7 z m 12.7,0 v -0.2 c 0,-16.6 -11,-25.7 -22.6,-25.7 -7.3,0 -12,3.4 -15.5,8.1 V 12.7 H 534 v 64.5 h 13.2 V 55.8 c 3.3,4 8,7.4 15.5,7.4 11.7,0 22.6,-9 22.6,-25.6 z"
   id="path14" />
<path
   class="st1"
   d="M 525.4,62.3 V 30 c 0,-11.9 -6.3,-18.2 -16.8,-18.2 -6.8,0 -11.9,2.8 -16.3,7.9 -2.6,-5 -7.5,-7.9 -14,-7.9 -7.1,0 -11.4,3.8 -14.6,8 v -7 h -14.1 v 49.6 h 14.1 V 34.6 c 0,-6.7 3.2,-10.1 8.5,-10.1 5.3,0 8.2,3.4 8.2,10.1 v 27.7 h 14.1 V 34.6 c 0,-6.7 3.2,-10.1 8.5,-10.1 5.3,0 8.2,3.4 8.2,10.1 v 27.7 z"
   id="path16" />
<path
   class="st1"
   d="m 416.7,53.3 c -4,0 -6.4,-2.1 -6.4,-4.7 0,-3.1 1.5,-4.6 5.9,-5.3 9.2,-1.3 11.4,-2.7 11.4,-2.7 1.3,11.1 -6.7,12.7 -10.9,12.7 z m 24.5,9 c 0,0 -0.1,-23.9 -0.1,-32.2 0,-9.9 -7.7,-18.3 -22.1,-18.3 -14.7,0 -21.4,8.3 -21.4,19.2 h 13.1 c 0.2,-1.2 -0.4,-7 7.9,-7 6,0 8.9,1.8 8.9,4.8 0,8.3 -30.4,-1.3 -30.4,20.8 0,10.7 7.8,14 15.1,14 11.3,0 15.3,-6.3 15.3,-6.3 l -0.1,5.2 z"
   id="path18" />
<path
   class="st1"
   d="m 378.5,44.4 c -0.6,2.7 -3.8,6.9 -10.4,6.9 -7.7,0 -12.6,-6.1 -12.6,-13.7 v -0.2 c 0,-7.3 5,-13.5 12,-13.5 6.9,0 10,3.8 10.9,7 h 13.1 c -0.2,-6.2 -5.9,-19.2 -24,-19.2 -15.2,0 -26,11.7 -26,25.8 v 0.2 c 0,14.2 10.9,25.7 25.8,25.7 17.8,0 23.9,-13.2 24.2,-19 z"
   id="path20" />
<g
   id="g24"
   transform="translate(-22.7,-20.6)">
	<path
   class="st0"
   d="m 301.3,71.2 c 0,0 -1.9,0.2 -5,0.2 -3.1,0 -4.9,-2 -4.9,-5.2 V 45.3 h 10.3 v -12 H 291.4 V 20.6 h -14.1 v 12.7 h -7.9 v 12 h 7.9 V 68 c 0,11.5 5.8,15.5 14.4,15.5 6.1,0 9.6,-0.6 9.6,-0.6 z"
   id="path22" />
</g>
</svg>
